<?xml version="1.0" encoding="utf-8"?>
<!-- Generator: Adobe Illustrator 24.0.3, SVG Export Plug-In . SVG Version: 6.00 Build 0)  -->
<svg version="1.1" id="Layer_1" xmlns="http://www.w3.org/2000/svg" xmlns:xlink="http://www.w3.org/1999/xlink" x="0px" y="0px"
	 viewBox="0 0 427.9 472.3" style="enable-background:new 0 0 427.9 472.3;" xml:space="preserve">
<style type="text/css">
	.st0{display:none;}
	.st1{display:inline;fill:none;stroke:#DA1C5C;stroke-miterlimit:10;}
	.st2{fill:#EF506F;}
	.st3{fill:#FFFFFF;}
	.st4{opacity:0.35;fill:url(#SVGID_1_);}
	.st5{opacity:0.35;fill:url(#SVGID_2_);}
	.st6{font-family:'Audrey-Normal';}
	.st7{font-size:52.5851px;}
</style>
<g id="AhwDDo.tif" class="st0">
</g>
<g class="st0">
	<path class="st1" d="M-2802.3,220.5c-0.6,0-1.3,0-1.9,0c-1.9,0-3.8-0.1-5.6-0.2c0,0.1,0.1,0.2,0.1,0.3c1.8-0.1,3.7-0.1,5.5-0.1"/>
	<path class="st1" d="M-2764.4,211c-11.4,5.8-24.3,9.3-37.9,9.6c0,0,0,0,0,0.1"/>
	<path class="st1" d="M-2716.6,132.9c0,2.5-0.1,5-0.3,7.5c11.4-5.8,24.3-9.3,37.9-9.6c-0.2-13-2.4-25.6-6.3-37.4
		c-13,0.8-25.4,3.7-37,8.2C-2718.7,111.4-2716.6,121.9-2716.6,132.9z"/>
	<path class="st1" d="M-2738.2,239.4c35.6-22.1,59.2-61.5,59.2-106.5c0-0.7,0-1.4,0-2c-13.6,0.3-26.5,3.7-37.9,9.6
		c-2.6,30.8-21.2,57.1-47.4,70.5"/>
	<path class="st1" d="M-2802.3,218.5c0,0.7,0,1.4,0,2c13.6-0.3,26.5-3.7,37.9-9.6c2.6-30.8,21.2-57.1,47.4-70.5
		c0.2-2.5,0.3-5,0.3-7.5c0-11-2-21.5-5.7-31.2C-2769.2,119.9-2802.3,165.3-2802.3,218.5z"/>
	<path class="st1" d="M-2764.4,211c26.2-13.4,44.8-39.7,47.4-70.5C-2743.2,153.9-2761.8,180.2-2764.4,211z"/>
	<path class="st1" d="M-2796,257.9c-2.5,0.2-5.1,0.3-7.7,0.3l0,0"/>
	<path class="st1" d="M-2717,337.3c12,4,24.7,6.3,38,6.5c-0.2-13.3-2.5-26.1-6.5-38c-33.7-3.2-61.8-25.5-73.4-56
		c-11.6,4.5-24.1,7.3-37,8.2c0.1,0.2,0.1,0.5,0.2,0.7"/>
	<path class="st1" d="M-2759,249.8c7.3-2.8,14.2-6.3,20.7-10.4"/>
	<path class="st1" d="M-2795.8,258.6c12.5,37,41.7,66.2,78.7,78.6"/>
	<path class="st1" d="M-2891.6,139.8c-11.8-3.7-24.3-5.7-37.3-5.7c-0.2,0-0.4,0-0.6,0c0.1,13.2,2.3,25.9,6.2,37.8
		c34.9,2.2,64.3,24.9,76.2,56.1c11.7-4.3,24.2-6.8,37.3-7.4"/>
	<path class="st1" d="M-2809.9,220.4c-12.6-38.3-43.1-68.5-81.7-80.6"/>
	<path class="st1" d="M-2841.6,266.6c11.3-5.3,24-8.3,37.3-8.3c0.2,0,0.4,0,0.6,0l0,0"/>
	<path class="st1" d="M-2891.9,345.9c0-2.4,0.1-4.8,0.3-7.1c-11.3,5.3-24,8.3-37.3,8.3c-0.2,0-0.4,0-0.6,0
		c0.1,13.1,2.3,25.7,6.1,37.5c13.1-0.6,25.6-3.1,37.3-7.4C-2889.8,367.4-2891.9,356.9-2891.9,345.9z"/>
	<path class="st1" d="M-2809.8,220.7"/>
	<path class="st1" d="M-2841.6,266.6c-2.6,32-22.3,59.1-50,72.2c-0.2,2.4-0.3,4.7-0.3,7.1c0,11,2,21.6,5.8,31.3
		c48.1-17.5,82.4-63.6,82.4-117.7c0-0.4,0-0.8,0-1.2c-0.2,0-0.4,0-0.6,0"/>
	<path class="st1" d="M-2870.3,239.4c-35.6,22.1-59.2,61.5-59.2,106.5c0,0.4,0,0.8,0,1.2c0.2,0,0.4,0,0.6,0c13.4,0,26-3,37.3-8.3
		c2.6-32,22.3-59.1,50-72.2"/>
	<path class="st1" d="M-2847.1,228.1c-8.2,3-15.9,6.8-23.2,11.3"/>
	<path class="st1" d="M-2841.6,266.6c-27.7,13.1-47.4,40.2-50,72.2C-2863.9,325.7-2844.2,298.5-2841.6,266.6z"/>
</g>
<g>
	<path class="st2" d="M386.4,327.7c-48.1-4.7-88.2-36.6-104.7-80.1c10.4-4,20.3-9,29.6-14.8c50.8-31.5,84.7-87.7,84.8-151.9l0-2.9
		c-0.3-18.6-3.4-36.6-8.9-53.4c-18.5,1.2-36.3,5.2-52.9,11.6C267.4,62.1,219.9,127,219.8,202.9c0,1,0,1.9,0,2.9c-0.9,0-1.9,0-2.8,0
		c-2.7,0-5.4-0.1-8-0.3c-17.9-54.8-61.5-97.9-116.5-115.2c-16.8-5.3-34.7-8.1-53.3-8.2c-0.3,0-0.5,0-0.8,0c0.2,18.8,3.2,37,8.8,54
		c49.8,3.2,91.7,35.6,108.7,80.3c-11.7,4.2-22.8,9.6-33.2,16.1C71.9,264.1,38.1,320.3,38,384.5c0,0.6,0,1.1,0,1.7
		c0.1,18.7,3.2,36.7,8.6,53.6c18.6-0.8,36.5-4.4,53.3-10.5c68.7-24.9,117.8-90.7,117.9-168c0-0.6,0-1.1,0-1.7c0,0,0,0,0,0l0.1,0
		c3.6,0,7.3-0.1,10.8-0.4c0.1,0.3,0.2,0.7,0.3,1c17.8,52.8,59.5,94.6,112.3,112.4c17.1,5.8,35.3,9,54.3,9.3
		C395.4,363,392.2,344.8,386.4,327.7z M92.1,374.4c3.7-45.6,32-84.3,71.5-102.9C159.9,317.1,131.7,355.8,92.1,374.4z M341.9,91.7
		c-3.8,44-30.4,81.5-67.9,100.6C277.9,148.3,304.4,110.8,341.9,91.7z"/>
	<path class="st3" d="M380.2,319.4c-48.1-4.7-88.2-36.6-104.7-80.1c10.4-4,20.3-9,29.6-14.8c50.8-31.5,84.7-87.7,84.8-151.9l0-2.9
		c-0.3-18.6-3.4-36.6-8.9-53.4c-18.5,1.2-36.3,5.2-52.9,11.6c-66.9,25.8-114.3,90.7-114.4,166.6c0,1,0,1.9,0,2.9c-0.9,0-1.9,0-2.8,0
		c-2.7,0-5.4-0.1-8-0.3C185,142.5,141.4,99.4,86.3,82.1C69.5,76.8,51.6,74,33,74c-0.3,0-0.5,0-0.8,0c0.2,18.8,3.2,37,8.8,54
		c49.8,3.2,91.7,35.6,108.7,80.3c-11.7,4.2-22.8,9.6-33.2,16.1c-50.8,31.5-84.7,87.7-84.8,151.9c0,0.6,0,1.1,0,1.7
		c0.1,18.7,3.2,36.7,8.6,53.6c18.6-0.8,36.5-4.4,53.3-10.5c68.7-24.9,117.8-90.7,117.9-168c0-0.6,0-1.1,0-1.7c0,0,0,0,0,0l0.1,0
		c3.6,0,7.3-0.1,10.8-0.4c0.1,0.3,0.2,0.7,0.3,1c17.8,52.8,59.5,94.6,112.3,112.4c17.1,5.8,35.3,9,54.3,9.3
		C389.2,354.8,386,336.5,380.2,319.4z M85.9,366.1c3.7-45.6,32-84.3,71.5-102.9C153.7,308.8,125.5,347.5,85.9,366.1z M335.7,83.4
		c-3.8,44-30.4,81.5-67.9,100.6C271.7,140,298.2,102.5,335.7,83.4z"/>
	<g>
		<linearGradient id="SVGID_1_" gradientUnits="userSpaceOnUse" x1="188.5122" y1="281.6595" x2="181.4185" y2="252.1936">
			<stop  offset="2.707507e-03" style="stop-color:#EF506F;stop-opacity:0"/>
			<stop  offset="0.2665" style="stop-color:#EC4C6B;stop-opacity:0.2645"/>
			<stop  offset="0.547" style="stop-color:#E2415E;stop-opacity:0.5458"/>
			<stop  offset="0.8343" style="stop-color:#D12F49;stop-opacity:0.8338"/>
			<stop  offset="1" style="stop-color:#C52139"/>
		</linearGradient>
		<path class="st4" d="M211.3,262.5C211.3,262.5,211.3,262.5,211.3,262.5c0.2-4.3,0.2-9.7,0.3-11.3l-0.8,0
			c-19.1,0-37.2,4.2-53.3,11.8l-1.3,10.6c15.8-7.1,33.3-11.1,51.7-11.1c0.3,0,0.5,0,0.8,0c0,0,0,0,0,0l0.1,0
			C209.7,262.5,210.5,262.5,211.3,262.5z"/>
		<linearGradient id="SVGID_2_" gradientUnits="userSpaceOnUse" x1="254.7416" y1="265.7153" x2="247.6479" y2="236.2494">
			<stop  offset="2.707507e-03" style="stop-color:#EF506F;stop-opacity:0"/>
			<stop  offset="0.2665" style="stop-color:#EC4C6B;stop-opacity:0.2645"/>
			<stop  offset="0.547" style="stop-color:#E2415E;stop-opacity:0.5458"/>
			<stop  offset="0.8343" style="stop-color:#D12F49;stop-opacity:0.8338"/>
			<stop  offset="1" style="stop-color:#C52139"/>
		</linearGradient>
		<path class="st5" d="M275.5,239.3c-14.5,5.6-29.9,9.4-46,11c-2.3,0.2-4.6,0.4-6.9,0.6l4,10.7c0,0,0,0,0,0c16.1-1.6,31.5-5.4,46-11
			c2.1-0.8,4.3-1.7,6.4-2.6"/>
	</g>
	<text transform="matrix(1 0 0 1 223.2217 441.9933)"><tspan x="0" y="0" class="st3 st6 st7">H</tspan><tspan x="42.5" y="0" class="st2 st6 st7">.</tspan><tspan x="59.8" y="0" class="st3 st6 st7">HAJ</tspan></text>
</g>
</svg>
